<svg width="420" height="378" fill="none" xmlns="http://www.w3.org/2000/svg"><path d="M239.411 26.658c-55.33.605-68.362 49.267-108.108 96.15C91.556 169.69 39.887 176.046 39.9 224.531c.014 48.584 38.551 85.177 86.936 89.77 134.039 12.724 224.37-87.887 223.866-159.85-.509-71.43-39.834-128.576-111.291-127.793zM126.28 79.36c7.493 7.944-.19 27.454-17.161 43.575-16.972 16.122-36.805 22.75-44.298 14.806-7.494-7.945.19-27.455 17.16-43.577 16.971-16.12 36.805-22.749 44.299-14.804z" fill="#FAFAFB"/><path d="M182.834 190.45c-35.888-16.774-44.937-34.495-41.438-45.484 2.775-8.72 12.893-12.882 25.778-10.598l-1.675 9.392c-7.744-1.37-13.763.272-14.98 4.09-1.888 5.934 6.241 19.876 36.38 33.963l-4.065 8.637zm34.38 0l-4.065-8.637c30.14-14.087 38.268-28.03 36.379-33.963-1.216-3.818-7.236-5.462-14.978-4.09l-1.675-9.392c12.885-2.284 23 1.878 25.777 10.598 3.499 10.99-5.55 28.71-41.438 45.484M196.35 227.2h8.4v-49.35h-8.4v49.35z" fill="#FCB040"/><path d="M153.301 123.25l23.305 63.125a25.526 25.526 0 0038.535 12.097 25.524 25.524 0 009.355-12.097l23.305-63.125h-94.5zm52.412 103.95h-10.324c-9.327 0-16.888 7.521-16.888 16.8h44.1c0-9.279-7.562-16.8-16.888-16.8" fill="#FCB040"/><path d="M175.35 252.4h49.35V244h-49.35v8.4z" fill="#D18A2C"/><path d="M330.699 69.36a3.425 3.425 0 01-2.098 3.214 3.423 3.423 0 01-3.722-5.596 3.42 3.42 0 015.82 2.382zm29.647 0a3.42 3.42 0 01-5.838 2.421 3.418 3.418 0 01-.003-4.837 3.422 3.422 0 015.841 2.415zm-29.647 29.648a3.418 3.418 0 01-3.422 3.421 3.42 3.42 0 113.422-3.421zm29.647 0a3.42 3.42 0 01-6.58 1.311 3.42 3.42 0 116.58-1.311zm29.648 0a3.42 3.42 0 11-6.84 0 3.42 3.42 0 016.84 0zm29.648 0a3.42 3.42 0 11-6.84 0 3.42 3.42 0 016.84 0zm-88.943 29.648a3.419 3.419 0 01-3.422 3.421 3.42 3.42 0 113.422-3.421zm29.647 0a3.42 3.42 0 01-5.838 2.42 3.408 3.408 0 01-1.003-2.418 3.424 3.424 0 013.419-3.422c.908 0 1.778.36 2.419 1.002a3.417 3.417 0 011.003 2.418zm29.648 0a3.42 3.42 0 11-6.84 0 3.42 3.42 0 016.84 0zm29.648 0a3.42 3.42 0 11-6.84 0 3.42 3.42 0 016.84 0zm-59.296 29.648a3.42 3.42 0 01-5.84 2.419 3.423 3.423 0 010-4.838 3.42 3.42 0 015.84 2.419zm29.648 0a3.423 3.423 0 01-6.582 1.309 3.42 3.42 0 01.742-3.728 3.42 3.42 0 015.84 2.419zm29.648 0a3.42 3.42 0 11-6.84 0 3.42 3.42 0 016.84 0z" fill="#FCB040"/><path d="M334 25.775a5.775 5.775 0 1111.55-.001 5.775 5.775 0 01-11.55.001" fill="#FA5751"/><path d="M49.85 200.04L34.999 211.9 32 193l17.85 7.04zM31.5 100.5h147v-14h-147v14zM260.4 258h29.4v-14h-29.4v14zm13.65 29.4h60v-14h-60v14z" fill="#387ED1"/><path d="M71.32 345h6.67v-1.172H72.64v-3.708h4.922v-1.172h-4.922v-3.686h5.263v-1.172H71.32V345zM83.439 345.17c1.81 0 3.004-1.108 3.217-2.557h-1.257c-.235.895-.98 1.428-1.96 1.428-1.492 0-2.45-1.236-2.45-3.132 0-1.854.98-3.069 2.45-3.069 1.108 0 1.768.682 1.96 1.428h1.257c-.213-1.534-1.513-2.557-3.239-2.557-2.216 0-3.686 1.747-3.686 4.24 0 2.451 1.406 4.219 3.708 4.219zM91.817 345.17c2.216 0 3.708-1.683 3.708-4.219 0-2.557-1.492-4.24-3.708-4.24-2.215 0-3.707 1.683-3.707 4.24 0 2.536 1.492 4.219 3.707 4.219zm0-1.129c-1.683 0-2.45-1.449-2.45-3.09 0-1.64.767-3.111 2.45-3.111 1.684 0 2.45 1.471 2.45 3.111 0 1.641-.766 3.09-2.45 3.09zM98.7 340.078c0-1.428.885-2.238 2.089-2.238 1.167 0 1.875.762 1.875 2.046V345h1.257v-5.199c0-2.088-1.113-3.09-2.77-3.09-1.236 0-2.003.554-2.386 1.385h-.107v-1.278h-1.214V345H98.7v-4.922zM109.542 345.17c2.216 0 3.707-1.683 3.707-4.219 0-2.557-1.491-4.24-3.707-4.24-2.216 0-3.707 1.683-3.707 4.24 0 2.536 1.491 4.219 3.707 4.219zm0-1.129c-1.683 0-2.45-1.449-2.45-3.09 0-1.64.767-3.111 2.45-3.111 1.683 0 2.45 1.471 2.45 3.111 0 1.641-.767 3.09-2.45 3.09zM115.168 345h1.258v-5.114c0-1.199.873-2.046 1.853-2.046.954 0 1.62.624 1.62 1.556V345h1.278v-5.327c0-1.055.66-1.833 1.811-1.833.895 0 1.662.475 1.662 1.684V345h1.257v-5.476c0-1.923-1.033-2.813-2.493-2.813-1.172 0-2.029.538-2.45 1.385h-.085c-.405-.873-1.119-1.385-2.195-1.385-1.065 0-1.854.512-2.195 1.385h-.106v-1.278h-1.215V345zM128.206 345h1.257v-8.182h-1.257V345zm.639-9.546c.49 0 .895-.383.895-.852s-.405-.852-.895-.852-.895.383-.895.852.405.852.895.852zM135.089 345.17c1.811 0 3.004-1.108 3.217-2.557h-1.257c-.234.895-.98 1.428-1.96 1.428-1.492 0-2.45-1.236-2.45-3.132 0-1.854.98-3.069 2.45-3.069 1.108 0 1.768.682 1.96 1.428h1.257c-.213-1.534-1.512-2.557-3.238-2.557-2.216 0-3.686 1.747-3.686 4.24 0 2.451 1.406 4.219 3.707 4.219zM143.937 335.262h3.43V345h1.321v-9.738h3.43v-1.172h-8.181v1.172zM153.987 345h1.257v-8.182h-1.257V345zm.639-9.546c.49 0 .895-.383.895-.852s-.405-.852-.895-.852-.895.383-.895.852.405.852.895.852zM157.546 345h1.257v-5.114c0-1.199.874-2.046 1.854-2.046.954 0 1.619.624 1.619 1.556V345h1.279v-5.327c0-1.055.66-1.833 1.811-1.833.895 0 1.662.475 1.662 1.684V345h1.257v-5.476c0-1.923-1.033-2.813-2.493-2.813-1.172 0-2.029.538-2.45 1.385h-.085c-.405-.873-1.119-1.385-2.195-1.385-1.065 0-1.854.512-2.195 1.385h-.106v-1.278h-1.215V345zM174.014 345.17c1.662 0 2.876-.831 3.26-2.067l-1.215-.341c-.319.853-1.06 1.279-2.045 1.279-1.476 0-2.493-.954-2.552-2.706h5.94v-.533c0-3.047-1.811-4.091-3.516-4.091-2.216 0-3.686 1.747-3.686 4.262 0 2.514 1.449 4.197 3.814 4.197zm-2.552-4.922c.086-1.273.986-2.408 2.424-2.408 1.364 0 2.237 1.023 2.237 2.408h-4.661zM185.109 338.65c-.394-1.161-1.278-1.939-2.897-1.939-1.726 0-3.005.98-3.005 2.365 0 1.13.672 1.886 2.174 2.237l1.363.32c.826.192 1.215.586 1.215 1.151 0 .703-.746 1.278-1.918 1.278-1.028 0-1.672-.442-1.896-1.321l-1.193.298c.293 1.391 1.438 2.131 3.11 2.131 1.902 0 3.197-1.039 3.197-2.45 0-1.14-.714-1.859-2.174-2.216l-1.214-.298c-.97-.24-1.407-.565-1.407-1.194 0-.703.746-1.214 1.748-1.214 1.097 0 1.55.607 1.768 1.172l1.129-.32zM197.506 336.818h1.278c-.058-1.646-1.576-2.877-3.686-2.877-2.088 0-3.728 1.215-3.728 3.047 0 1.47 1.065 2.344 2.769 2.834l1.343.384c1.15.319 2.173.724 2.173 1.811 0 1.193-1.15 1.981-2.663 1.981-1.3 0-2.451-.575-2.557-1.811h-1.364c.128 1.79 1.577 3.004 3.921 3.004 2.514 0 3.942-1.385 3.942-3.153 0-2.046-1.939-2.706-3.069-3.004l-1.108-.299c-.809-.213-2.109-.639-2.109-1.811 0-1.044.959-1.811 2.408-1.811 1.321 0 2.322.629 2.45 1.705zM204.493 336.818h-1.747v-1.96h-1.257v1.96h-1.236v1.065h1.236v5.114c0 1.427 1.151 2.109 2.216 2.109.469 0 .767-.085.937-.149l-.255-1.129c-.107.021-.277.064-.554.064-.554 0-1.087-.171-1.087-1.236v-4.773h1.747v-1.065zM208.792 345.191c1.427 0 2.173-.767 2.429-1.299h.064V345h1.257v-5.391c0-2.6-1.982-2.898-3.026-2.898-1.235 0-2.642.426-3.281 1.918l1.193.426c.277-.597.932-1.236 2.131-1.236 1.156 0 1.726.613 1.726 1.662v.043c0 .607-.618.554-2.11.745-1.518.198-3.174.533-3.174 2.408 0 1.598 1.236 2.514 2.791 2.514zm.192-1.129c-1.002 0-1.726-.447-1.726-1.321 0-.959.873-1.257 1.853-1.385.533-.064 1.961-.213 2.174-.469v1.151c0 1.023-.81 2.024-2.301 2.024zM214.836 345h1.257v-5.178c0-1.108.874-1.918 2.067-1.918.336 0 .682.064.767.086v-1.279c-.144-.01-.474-.021-.66-.021-.98 0-1.833.554-2.131 1.364h-.085v-1.236h-1.215V345zM224.488 336.818h-1.747v-1.96h-1.257v1.96h-1.236v1.065h1.236v5.114c0 1.427 1.151 2.109 2.216 2.109.469 0 .767-.085.938-.149l-.256-1.129c-.107.021-.277.064-.554.064-.554 0-1.087-.171-1.087-1.236v-4.773h1.747v-1.065zM231.536 341.654c0 1.534-1.172 2.238-2.11 2.238-1.044 0-1.79-.767-1.79-1.961v-5.113h-1.257v5.199c0 2.088 1.108 3.089 2.642 3.089 1.236 0 2.046-.66 2.429-1.491h.086V345h1.257v-8.182h-1.257v4.836zM235.095 348.068h1.257v-4.326h.107c.277.448.809 1.428 2.386 1.428 2.046 0 3.473-1.641 3.473-4.24 0-2.578-1.427-4.219-3.494-4.219-1.598 0-2.088.98-2.365 1.406h-.149v-1.299h-1.215v11.25zm1.236-7.159c0-1.833.81-3.069 2.344-3.069 1.598 0 2.386 1.343 2.386 3.069 0 1.747-.81 3.132-2.386 3.132-1.513 0-2.344-1.279-2.344-3.132zM251.778 345.17c2.216 0 3.708-1.683 3.708-4.219 0-2.557-1.492-4.24-3.708-4.24s-3.707 1.683-3.707 4.24c0 2.536 1.491 4.219 3.707 4.219zm0-1.129c-1.683 0-2.45-1.449-2.45-3.09 0-1.64.767-3.111 2.45-3.111 1.684 0 2.451 1.471 2.451 3.111 0 1.641-.767 3.09-2.451 3.09zM261.048 336.818h-1.832v-.831c0-.81.341-1.236 1.172-1.236.362 0 .575.085.703.128l.362-1.087c-.192-.085-.575-.213-1.193-.213-1.172 0-2.301.703-2.301 2.109v1.13h-1.321v1.065h1.321V345h1.257v-7.117h1.832v-1.065zM270.587 336.818h-1.747v-1.96h-1.257v1.96h-1.236v1.065h1.236v5.114c0 1.427 1.15 2.109 2.216 2.109.468 0 .767-.085.937-.149l-.256-1.129c-.106.021-.277.064-.554.064-.553 0-1.086-.171-1.086-1.236v-4.773h1.747v-1.065zM273.911 340.078c0-1.428.911-2.238 2.152-2.238 1.182 0 1.896.746 1.896 2.046V345h1.257v-5.199c0-2.104-1.118-3.09-2.791-3.09-1.289 0-2.024.538-2.408 1.385h-.106v-4.006h-1.257V345h1.257v-4.922zM284.946 345.17c1.662 0 2.877-.831 3.26-2.067l-1.214-.341c-.32.853-1.06 1.279-2.046 1.279-1.475 0-2.492-.954-2.551-2.706h5.939v-.533c0-3.047-1.811-4.091-3.515-4.091-2.216 0-3.686 1.747-3.686 4.262 0 2.514 1.448 4.197 3.813 4.197zm-2.551-4.922c.085-1.273.985-2.408 2.424-2.408 1.363 0 2.237 1.023 2.237 2.408h-4.661zM293.698 334.09l3.942 6.414V345h1.321v-4.496l3.942-6.414h-1.513l-3.026 5.093h-.127l-3.026-5.093h-1.513zM306.714 345.17c1.662 0 2.876-.831 3.26-2.067l-1.215-.341c-.319.853-1.06 1.279-2.045 1.279-1.475 0-2.493-.954-2.551-2.706h5.939v-.533c0-3.047-1.811-4.091-3.516-4.091-2.216 0-3.686 1.747-3.686 4.262 0 2.514 1.449 4.197 3.814 4.197zm-2.551-4.922c.085-1.273.985-2.408 2.423-2.408 1.364 0 2.237 1.023 2.237 2.408h-4.66zM314.422 345.191c1.427 0 2.173-.767 2.429-1.299h.064V345h1.257v-5.391c0-2.6-1.982-2.898-3.026-2.898-1.236 0-2.642.426-3.281 1.918l1.193.426c.277-.597.932-1.236 2.131-1.236 1.156 0 1.726.613 1.726 1.662v.043c0 .607-.618.554-2.11.745-1.518.198-3.174.533-3.174 2.408 0 1.598 1.235 2.514 2.791 2.514zm.192-1.129c-1.002 0-1.726-.447-1.726-1.321 0-.959.873-1.257 1.853-1.385.533-.064 1.961-.213 2.174-.469v1.151c0 1.023-.81 2.024-2.301 2.024zM320.466 345h1.257v-5.178c0-1.108.874-1.918 2.067-1.918.336 0 .682.064.767.086v-1.279c-.144-.01-.474-.021-.66-.021-.98 0-1.833.554-2.131 1.364h-.085v-1.236h-1.215V345zM334.954 339.737h-4.773v1.172h4.773v-1.172zM341.363 345h6.882v-1.172h-5.071v-.086l2.45-2.62c1.875-2.008 2.429-2.946 2.429-4.155 0-1.683-1.363-3.026-3.281-3.026-1.912 0-3.366 1.3-3.366 3.218h1.257c0-1.241.804-2.067 2.066-2.067 1.183 0 2.088.724 2.088 1.875 0 1.007-.591 1.752-1.853 3.132l-3.601 3.942V345zM354.003 345.149c2.408 0 3.793-2.04 3.793-5.604 0-3.537-1.406-5.604-3.793-5.604-2.386 0-3.792 2.067-3.792 5.604 0 3.564 1.385 5.604 3.792 5.604zm0-1.172c-1.587 0-2.514-1.593-2.514-4.432 0-2.834.937-4.453 2.514-4.453 1.577 0 2.514 1.619 2.514 4.453 0 2.839-.926 4.432-2.514 4.432zM359.82 345h6.882v-1.172h-5.071v-.086l2.45-2.62c1.875-2.008 2.429-2.946 2.429-4.155 0-1.683-1.363-3.026-3.281-3.026-1.912 0-3.366 1.3-3.366 3.218h1.257c0-1.241.804-2.067 2.066-2.067 1.183 0 2.089.724 2.089 1.875 0 1.007-.592 1.752-1.854 3.132l-3.601 3.942V345zM372.46 345.149c2.408 0 3.793-2.04 3.793-5.604 0-3.537-1.406-5.604-3.793-5.604-2.386 0-3.792 2.067-3.792 5.604 0 3.564 1.385 5.604 3.792 5.604zm0-1.172c-1.587 0-2.514-1.593-2.514-4.432 0-2.834.938-4.453 2.514-4.453 1.577 0 2.514 1.619 2.514 4.453 0 2.839-.926 4.432-2.514 4.432zM59.473 332.3h-2.31c.008-.257.013-.514.013-.773a.53.53 0 00-.528-.527H45.352a.52.52 0 00-.373.154.529.529 0 00-.155.373c0 .259.005.516.013.772h-2.31a.53.53 0 00-.527.527c0 2.363.618 4.593 1.739 6.278 1.108 1.666 2.585 2.621 4.18 2.714.361.394.743.715 1.142.96v2.343h-.885c-1.07 0-1.94.87-1.94 1.94v.884H46.2a.53.53 0 00-.528.528.525.525 0 00.528.527h9.6a.528.528 0 000-1.055h-.037v-.884c0-1.07-.87-1.94-1.94-1.94h-.885v-2.344c.399-.244.78-.565 1.143-.959 1.594-.093 3.07-1.048 4.18-2.714 1.12-1.685 1.738-3.915 1.738-6.278a.527.527 0 00-.527-.527l.001.001zm-14.856 6.22c-.925-1.39-1.468-3.208-1.551-5.166h1.83c.19 2.407.755 4.631 1.638 6.397.141.282.288.547.44.798-.877-.332-1.688-1.023-2.357-2.029zm10.092 8.54v.885h-7.418v-.884c0-.488.397-.885.885-.885h5.648c.488 0 .885.397.885.885v-.001zm-2.824-1.939h-1.77v-1.885a3.47 3.47 0 001.77 0v1.885zm.326-3.14a2.552 2.552 0 01-1.211.316 2.556 2.556 0 01-1.212-.316c-.413-.219-.813-.55-1.192-.983a.553.553 0 00-.067-.079 8.326 8.326 0 01-1.051-1.64c-.97-1.938-1.53-4.486-1.593-7.224h10.23c-.064 2.738-.624 5.287-1.593 7.225a8.33 8.33 0 01-1.051 1.64.546.546 0 00-.068.078c-.378.434-.778.764-1.192.983zm5.172-3.461c-.669 1.005-1.48 1.697-2.358 2.029.153-.25.3-.516.44-.798.884-1.766 1.449-3.99 1.639-6.397h1.83c-.083 1.958-.627 3.776-1.551 5.166zM23.473 361.3h-2.31c.008-.257.013-.514.013-.773a.53.53 0 00-.528-.527H9.352a.519.519 0 00-.373.154.527.527 0 00-.155.373c0 .259.005.516.013.772h-2.31a.53.53 0 00-.527.527c0 2.363.618 4.593 1.739 6.278 1.108 1.666 2.585 2.621 4.18 2.714.361.394.743.715 1.142.96v2.343h-.885c-1.07 0-1.94.87-1.94 1.94v.884H10.2a.53.53 0 00-.373.9.528.528 0 00.373.155h9.6a.528.528 0 000-1.055h-.037v-.884c0-1.07-.87-1.94-1.94-1.94h-.885v-2.344c.399-.244.78-.565 1.143-.959 1.594-.093 3.07-1.048 4.18-2.714 1.12-1.685 1.738-3.915 1.738-6.278a.527.527 0 00-.527-.527l.001.001zm-14.856 6.22c-.925-1.39-1.468-3.208-1.551-5.166h1.83c.19 2.407.755 4.631 1.638 6.397.141.282.288.547.44.798-.877-.332-1.688-1.024-2.357-2.03v.001zm10.092 8.54v.885h-7.418v-.884c0-.488.397-.885.885-.885h5.648c.488 0 .885.397.885.885v-.001zm-2.824-1.939h-1.77v-1.885a3.47 3.47 0 001.77 0v1.885zm.326-3.14a2.552 2.552 0 01-1.211.316 2.556 2.556 0 01-1.212-.316c-.413-.219-.813-.55-1.192-.983a.553.553 0 00-.067-.079 8.326 8.326 0 01-1.051-1.64c-.97-1.938-1.53-4.486-1.593-7.224h10.23c-.064 2.738-.624 5.287-1.593 7.225a8.33 8.33 0 01-1.051 1.64.546.546 0 00-.068.078c-.378.434-.778.764-1.192.983zm5.172-3.461c-.669 1.005-1.48 1.697-2.358 2.029.153-.25.3-.516.44-.798.884-1.766 1.449-3.99 1.639-6.397h1.83c-.083 1.958-.626 3.776-1.55 5.166h-.001zm22.589-4.43V374h-1.279l-5.944-8.565h-.107V374h-1.321v-10.91h1.278l5.966 8.588h.107v-8.587h1.3v-.001zm8.608 2.728a1.671 1.671 0 00-.778-1.257c-.455-.298-1.012-.447-1.673-.447-.483 0-.904.078-1.265.234a2 2 0 00-.841.645 1.532 1.532 0 00-.301.932c0 .29.07.54.21.748.14.208.32.38.54.517.22.137.452.248.693.335.242.087.464.158.666.21l1.108.3c.284.074.6.177.95.308s.686.31 1.007.535c.322.226.587.514.797.866.21.352.314.783.314 1.294 0 .59-.153 1.123-.46 1.598-.308.476-.755.854-1.343 1.135-.588.28-1.3.42-2.139.42-.78 0-1.457-.125-2.026-.377-.57-.253-1.018-.604-1.343-1.055a2.993 2.993 0 01-.551-1.572h1.364c.035.412.174.752.418 1.02.243.269.552.468.927.597.374.13.778.195 1.211.195.505 0 .957-.083 1.359-.248.373-.144.7-.383.953-.693a1.63 1.63 0 00.352-1.041c0-.362-.102-.657-.304-.884a2.236 2.236 0 00-.799-.554 8.426 8.426 0 00-1.07-.373l-1.343-.384c-.852-.245-1.527-.594-2.024-1.049-.497-.454-.746-1.05-.746-1.784 0-.611.166-1.145.498-1.601a3.3 3.3 0 011.343-1.065c.562-.254 1.192-.381 1.888-.381.703 0 1.328.125 1.875.375.547.25.98.592 1.302 1.026.322.433.491.925.509 1.475H52.58zm3.6 8.182v-10.91h6.584v1.173h-5.263v3.686h4.922v1.172h-4.922v3.707h5.348V374H56.18zm10.675-1.491l-.085.575c-.06.405-.152.838-.274 1.3-.123.461-.25.896-.381 1.305l-.212.645c-.041.123-.08.233-.113.33h-.959l.181-.9c.075-.374.15-.79.226-1.25.077-.46.14-.93.19-1.409l.063-.596h1.364zm6.712-9.418h1.576l3.708 9.055h.128l3.707-9.055h1.577V374h-1.236v-8.288h-.107L79.511 374h-1.193l-3.409-8.288h-.106V374h-1.236v-10.91.001zm22.116 3.409h-1.32a2.777 2.777 0 00-1.111-1.729 3.056 3.056 0 00-.914-.444 3.62 3.62 0 00-1.044-.15c-.66 0-1.258.167-1.792.501-.535.334-.96.826-1.273 1.476-.315.65-.472 1.447-.472 2.391 0 .945.157 1.742.472 2.392.314.65.738 1.142 1.273 1.476a3.32 3.32 0 001.792.5c.362 0 .71-.05 1.044-.149.334-.1.638-.247.914-.445.275-.197.51-.44.703-.73.199-.303.337-.642.407-.998h1.321a4.4 4.4 0 01-.543 1.497 4.07 4.07 0 01-.98 1.121c-.39.307-.828.54-1.313.7-.485.16-1.003.24-1.553.24-.93 0-1.758-.227-2.482-.682-.725-.454-1.295-1.1-1.71-1.939-.416-.838-.623-1.832-.623-2.983 0-1.15.207-2.144.623-2.983.415-.838.985-1.484 1.71-1.938.724-.455 1.552-.682 2.482-.682.55 0 1.068.08 1.553.24.485.16.922.393 1.313.7.39.307.717.68.98 1.119.263.438.444.938.543 1.499zm2.77-3.41l2.813 4.54h.085l2.812-4.54h1.556l-3.43 5.455 3.43 5.455h-1.556l-2.812-4.453h-.085L98.453 374h-1.555l3.515-5.455-3.515-5.454h1.555v-.001zm17.727 4.87v1.171h-4.772v-1.171h4.772zm6.606 6.04v-10.91h3.813c.76 0 1.387.131 1.88.392.494.261.862.611 1.103 1.05.242.438.363.924.363 1.457 0 .468-.083.855-.248 1.16a1.979 1.979 0 01-.65.725c-.267.177-.561.31-.87.394v.107c.333.021.669.138 1.006.352.337.213.62.518.847.916.227.397.34.884.34 1.46a2.926 2.926 0 01-.372 1.475c-.249.437-.641.783-1.177 1.038-.537.256-1.234.384-2.094.384h-3.941zm1.32-1.172h2.621c.863 0 1.477-.168 1.84-.503a1.6 1.6 0 00.547-1.223c0-.369-.094-.71-.283-1.025a2.061 2.061 0 00-.804-.757c-.348-.19-.76-.284-1.236-.284h-2.684v3.792h-.001zm0-4.943h2.45c.399 0 .758-.078 1.08-.234.32-.157.577-.377.767-.66.19-.285.284-.619.284-1.002 0-.48-.166-.887-.5-1.223-.334-.335-.863-.503-1.588-.503h-2.492v3.622h-.001zm9.147 1.364h4.66c0-.462-.091-.874-.274-1.236a2.111 2.111 0 00-.778-.858c-.335-.21-.73-.314-1.185-.314-.5 0-.933.123-1.297.37a2.46 2.46 0 00-.839.962c-.134.27-.222.553-.264.85l-.023.226zm-.003 1.086c.018.544.125 1.01.32 1.398.214.428.513.753.897.975.383.222.83.333 1.337.333.33 0 .63-.047.898-.141.268-.094.5-.236.695-.426.202-.2.356-.443.452-.711l1.215.34c-.125.408-.346.78-.645 1.085a3.09 3.09 0 01-1.118.724 4.11 4.11 0 01-1.497.258c-.788 0-1.468-.174-2.037-.524a3.465 3.465 0 01-1.316-1.47c-.307-.63-.46-1.365-.46-2.203 0-.838.153-1.578.46-2.219a3.62 3.62 0 011.289-1.502c.552-.36 1.197-.54 1.936-.54.426 0 .847.07 1.263.213.415.142.793.372 1.134.69.341.317.613.737.815 1.26.203.521.304 1.164.304 1.928v.532h-5.942zm13.655-2.684l-1.13.32a2.178 2.178 0 00-.311-.552 1.566 1.566 0 00-.557-.445c-.234-.117-.534-.176-.9-.176-.5 0-.917.115-1.249.344-.332.229-.498.52-.498.87 0 .313.114.56.34.741.228.181.583.332 1.066.453l1.215.298c.731.178 1.276.449 1.635.813.359.364.538.831.538 1.403 0 .469-.134.888-.402 1.257-.268.37-.642.66-1.121.874-.48.213-1.037.32-1.673.32-.835 0-1.525-.182-2.072-.544-.547-.362-.893-.891-1.039-1.587l1.193-.299c.114.44.33.771.648.991.317.22.734.33 1.249.33.586 0 1.052-.125 1.398-.375.346-.25.52-.551.52-.903a.95.95 0 00-.299-.716c-.199-.194-.504-.339-.916-.434l-1.364-.32c-.75-.178-1.299-.454-1.648-.828-.35-.375-.525-.845-.525-1.41 0-.46.13-.87.391-1.224a2.625 2.625 0 011.071-.837c.453-.202.967-.303 1.542-.303.81 0 1.446.177 1.91.532.463.355.793.824.988 1.407zm5.604-1.833v1.066h-4.24v-1.066h4.24zm-3.005-1.96h1.257v7.798c0 .355.053.62.158.797a.768.768 0 00.404.351c.165.059.34.088.525.088.139 0 .252-.008.34-.024l.214-.04.256 1.13a2.774 2.774 0 01-.357.098c-.153.034-.346.05-.58.05-.356 0-.703-.076-1.042-.229a2.048 2.048 0 01-.842-.697c-.222-.313-.333-.707-.333-1.183v-8.139zm10.611 4.687h2.344c.582 0 1.052-.085 1.409-.255.357-.17.616-.413.777-.727.162-.315.243-.69.243-1.127 0-.437-.082-.818-.245-1.145a1.682 1.682 0 00-.783-.76c-.359-.179-.833-.268-1.423-.268h-2.322v4.282zm0 1.194V374h-1.321v-10.91h3.686c.852 0 1.552.146 2.099.435.547.29.952.686 1.214 1.19.263.505.394 1.078.394 1.721s-.13 1.213-.394 1.71c-.262.497-.666.887-1.209 1.17-.543.281-1.237.423-2.083.423h-2.386zm3.814-.64l2.685 4.901h-1.534l-2.643-4.9h1.492v-.001zm5.162.15h4.66c0-.462-.091-.874-.274-1.236a2.111 2.111 0 00-.778-.858c-.335-.21-.73-.314-1.185-.314-.5 0-.933.123-1.297.37a2.46 2.46 0 00-.839.962c-.134.27-.222.553-.264.85l-.023.226zm-.003 1.086c.018.544.125 1.01.32 1.398.214.428.514.753.897.975.384.222.83.333 1.337.333.33 0 .63-.047.898-.141.268-.094.5-.236.695-.426.202-.2.356-.443.452-.711l1.215.34c-.125.408-.346.78-.645 1.085a3.09 3.09 0 01-1.118.724 4.11 4.11 0 01-1.497.258c-.788 0-1.467-.174-2.037-.524a3.465 3.465 0 01-1.316-1.47c-.307-.63-.46-1.365-.46-2.203 0-.838.153-1.578.46-2.219a3.62 3.62 0 011.289-1.502c.552-.36 1.198-.54 1.936-.54.426 0 .847.07 1.263.213.415.142.793.372 1.134.69.341.317.613.737.815 1.26.203.521.304 1.164.304 1.928v.532h-5.942zm11.418-4.517v1.066h-4.24v-1.066h4.24zm-3.005-1.96h1.258v7.798c0 .355.052.62.157.797a.768.768 0 00.404.351c.166.059.34.088.525.088.139 0 .252-.008.341-.024l.213-.04.256 1.13a2.774 2.774 0 01-.357.098c-.153.034-.346.05-.58.05-.356 0-.703-.076-1.042-.229a2.048 2.048 0 01-.842-.697c-.222-.313-.333-.707-.333-1.183v-8.139zm7.309 10.334a3.288 3.288 0 01-1.412-.296 2.407 2.407 0 01-1.007-.857c-.248-.375-.373-.829-.373-1.361 0-.47.093-.85.277-1.143.185-.293.432-.523.74-.69a3.96 3.96 0 011.026-.375c.375-.084.752-.15 1.132-.2l1.049-.128.163-.019c.31-.033.538-.091.682-.173.144-.081.216-.223.216-.426v-.042c0-.526-.143-.934-.43-1.226-.285-.29-.717-.436-1.296-.436-.6 0-1.071.131-1.412.394-.34.263-.58.543-.719.841l-1.193-.426c.213-.497.498-.885.855-1.164a3.21 3.21 0 011.172-.586c.409-.11.831-.166 1.254-.167.263 0 .566.03.908.093.343.062.675.189.996.38.322.192.589.482.802.869.213.387.32.906.32 1.555V374h-1.257v-1.108h-.064a2.227 2.227 0 01-.427.57 2.454 2.454 0 01-.793.517c-.33.142-.733.213-1.21.213h.001zm.191-1.13c.498 0 .917-.097 1.26-.292.343-.196.602-.448.778-.757.176-.309.264-.634.264-.975v-1.15c-.054.064-.17.121-.35.173a5.33 5.33 0 01-.617.133l-.344.052-.863.11c-.31.039-.616.108-.913.206-.283.094-.51.234-.682.42-.172.187-.258.44-.258.76 0 .436.162.766.487.988.325.222.738.332 1.238.332zm5.86.938v-8.182h1.257V374h-1.257zm.639-9.545a.88.88 0 01-.631-.25.81.81 0 01-.197-.932.81.81 0 01.197-.273.888.888 0 01.631-.25c.245 0 .455.083.631.25a.81.81 0 01.197.931.81.81 0 01-.197.273.888.888 0 01-.631.25v.001zm4.176-1.364V374h-1.257v-10.91h1.257v.001zm6.69 10.909v-10.91h3.814c.76 0 1.387.131 1.88.392.494.261.862.611 1.103 1.05.242.438.363.924.363 1.457 0 .468-.083.855-.248 1.16a1.979 1.979 0 01-.65.725c-.267.177-.561.31-.87.394v.107c.333.021.668.138 1.006.352.337.213.62.518.847.916.227.397.34.884.34 1.46a2.926 2.926 0 01-.372 1.475c-.249.437-.641.783-1.177 1.038-.537.256-1.234.384-2.094.384h-3.942zm1.321-1.172h2.621c.863 0 1.477-.168 1.84-.503a1.6 1.6 0 00.547-1.223c0-.369-.095-.71-.283-1.025a2.061 2.061 0 00-.804-.757c-.348-.19-.76-.284-1.236-.284h-2.685v3.792zm0-4.943h2.45c.399 0 .758-.078 1.08-.234.32-.157.576-.377.766-.66.19-.285.285-.619.285-1.002 0-.48-.166-.887-.5-1.223-.334-.335-.863-.503-1.588-.503h-2.493v3.622zm8.268 6.115v-8.182h1.214v1.236h.085c.15-.405.42-.733.81-.985.39-.253.83-.379 1.32-.379l.347.006c.139.003.243.009.314.016v1.278l-.206-.037a3.092 3.092 0 00-.56-.048 2.232 2.232 0 00-1.063.248 1.843 1.843 0 00-1.004 1.67V374h-1.257zm8.906.17c-.739 0-1.386-.175-1.942-.527a3.56 3.56 0 01-1.3-1.475c-.31-.632-.466-1.371-.466-2.216 0-.853.156-1.597.466-2.232.311-.636.744-1.13 1.3-1.481.556-.352 1.203-.527 1.942-.527.738 0 1.386.175 1.941.527.556.352.99.845 1.3 1.48.31.636.466 1.38.466 2.233 0 .845-.155 1.584-.466 2.216a3.56 3.56 0 01-1.3 1.475c-.555.352-1.203.527-1.941.527zm0-1.129c.56 0 1.023-.144 1.385-.431.362-.288.63-.666.804-1.135.174-.469.261-.976.261-1.523a4.42 4.42 0 00-.26-1.53 2.58 2.58 0 00-.805-1.144c-.362-.291-.824-.437-1.385-.437s-1.023.146-1.385.437c-.362.29-.63.673-.804 1.145a4.402 4.402 0 00-.261 1.529c0 .547.087 1.054.26 1.523.175.469.443.847.805 1.135.362.287.824.431 1.385.431zm6.797-2.024l-.022-1.555h.256l3.58-3.644h1.555l-3.814 3.857h-.106l-1.45 1.342h.001zM226.486 374v-10.91h1.257V374h-1.257zm5.199 0l-3.196-4.048.895-.874 3.899 4.922h-1.598zm3.84-4.751h4.661c0-.462-.091-.874-.274-1.236a2.111 2.111 0 00-.778-.858c-.336-.21-.73-.314-1.185-.314-.5 0-.933.123-1.297.37-.36.241-.649.573-.84.962-.133.27-.221.553-.263.85l-.023.226h-.001zm-.002 1.086c.018.544.124 1.01.32 1.398.214.428.513.753.897.975.383.222.829.333 1.337.333.33 0 .63-.047.897-.141.268-.094.5-.236.695-.426.202-.2.357-.443.453-.711l1.215.34c-.125.408-.346.78-.645 1.085-.302.31-.675.552-1.118.724a4.11 4.11 0 01-1.497.258c-.789 0-1.468-.174-2.038-.524a3.456 3.456 0 01-1.315-1.47c-.308-.63-.461-1.365-.461-2.203 0-.838.153-1.578.46-2.219.308-.64.737-1.141 1.29-1.502.552-.36 1.197-.54 1.936-.54.426 0 .847.07 1.262.213a3.14 3.14 0 011.135.69c.34.317.612.737.815 1.26.202.521.303 1.164.303 1.928v.532h-5.941zm7.86 3.665v-8.182h1.214v1.236h.085a1.96 1.96 0 01.81-.985c.39-.253.83-.379 1.32-.379l.347.006c.138.003.243.009.314.016v1.278l-.206-.037a3.092 3.092 0 00-.56-.048 2.224 2.224 0 00-1.064.248 1.843 1.843 0 00-1.004 1.67V374h-1.257.001zm7.99.192a3.288 3.288 0 01-1.412-.296 2.407 2.407 0 01-1.007-.857c-.249-.375-.373-.829-.373-1.361 0-.47.092-.85.277-1.143.185-.293.431-.523.74-.69.31-.167.651-.292 1.026-.375.374-.084.752-.15 1.132-.2l1.048-.128.164-.019c.31-.033.538-.091.681-.173.144-.081.216-.223.216-.426v-.042c0-.526-.143-.934-.429-1.226-.286-.29-.718-.436-1.297-.436-.6 0-1.07.131-1.411.394-.341.263-.581.543-.72.841l-1.193-.426c.213-.497.498-.885.855-1.164a3.21 3.21 0 011.172-.586c.409-.11.831-.166 1.255-.167.262 0 .565.03.908.093.342.062.675.189.996.38.321.192.588.482.802.869.213.387.32.906.32 1.555V374h-1.258v-1.108h-.064a2.2 2.2 0 01-.426.57 2.458 2.458 0 01-.794.517c-.33.142-.733.213-1.209.213h.001zm.19-1.13c.498 0 .918-.097 1.26-.292.343-.196.603-.448.778-.757.176-.309.264-.634.264-.975v-1.15c-.053.064-.17.121-.349.173a5.35 5.35 0 01-.618.133l-.343.052-.863.11a4.837 4.837 0 00-.914.206c-.282.094-.51.234-.682.42-.172.187-.258.44-.258.76 0 .436.163.766.487.988.325.222.738.332 1.239.332h-.001zm9.163 4.177c-.607 0-1.13-.078-1.566-.232a3.341 3.341 0 01-1.09-.607 3.35 3.35 0 01-.69-.802l1.002-.703c.114.149.258.32.432.514.174.193.412.362.716.506.304.144.702.216 1.196.216.66 0 1.205-.16 1.635-.48.43-.32.645-.82.645-1.502v-1.662h-.107a6.81 6.81 0 01-.391.552c-.169.218-.41.411-.725.58-.314.169-.738.253-1.27.253a3.393 3.393 0 01-1.777-.469c-.523-.312-.937-.767-1.24-1.363-.304-.597-.456-1.321-.456-2.174 0-.838.147-1.568.442-2.191.295-.624.705-1.107 1.23-1.45.526-.342 1.133-.513 1.822-.513.533 0 .956.088 1.27.263.315.176.556.375.725.597l.184.247c.083.114.152.214.207.299h.128v-1.3h1.215v8.416c0 .704-.16 1.276-.477 1.718-.32.444-.765.783-1.278.975a4.882 4.882 0 01-1.782.312zm-.043-4.496c.505 0 .93-.116 1.279-.346.348-.231.612-.563.793-.996.181-.434.272-.952.272-1.556 0-.59-.089-1.11-.266-1.56-.178-.452-.44-.805-.789-1.06-.348-.256-.777-.384-1.289-.384-.532 0-.975.135-1.329.405-.353.27-.618.632-.793 1.086a4.159 4.159 0 00-.264 1.513c0 .568.09 1.07.269 1.505.18.435.446.776.799 1.023.353.246.793.37 1.318.37zm6.76-3.494h4.66c0-.462-.09-.874-.274-1.236a2.109 2.109 0 00-.777-.858c-.336-.21-.731-.314-1.186-.314-.5 0-.933.123-1.297.37a2.46 2.46 0 00-.839.962c-.133.27-.221.553-.264.85l-.023.226zm-.003 1.086c.018.544.125 1.01.32 1.398.215.428.514.753.897.975.384.222.83.333 1.337.333.33 0 .63-.047.898-.141.268-.094.5-.236.695-.426.202-.2.357-.443.453-.711l1.214.34c-.125.408-.346.78-.644 1.085-.302.31-.675.552-1.119.724a4.11 4.11 0 01-1.497.258c-.788 0-1.467-.174-2.037-.524a3.465 3.465 0 01-1.316-1.47c-.307-.63-.46-1.365-.46-2.203 0-.838.153-1.578.46-2.219.307-.64.737-1.141 1.29-1.502.551-.36 1.197-.54 1.935-.54.427 0 .847.07 1.263.213.415.142.794.372 1.134.69.341.317.613.737.815 1.26.203.521.304 1.164.304 1.928v.532h-5.942zm14.486 3.857a3.302 3.302 0 01-1.411-.296 2.407 2.407 0 01-1.007-.857c-.249-.375-.373-.829-.373-1.361 0-.47.092-.85.277-1.143.185-.293.431-.523.74-.69.31-.167.651-.292 1.026-.375.374-.084.752-.15 1.132-.2l1.048-.128.163-.019c.311-.033.538-.091.682-.173.144-.081.216-.223.216-.426v-.042c0-.526-.143-.934-.429-1.226-.286-.29-.718-.436-1.297-.436-.6 0-1.07.131-1.411.394-.341.263-.581.543-.72.841l-1.193-.426c.213-.497.498-.885.855-1.164a3.21 3.21 0 011.172-.586c.409-.11.831-.166 1.255-.167.262 0 .565.03.908.093.342.062.674.189.996.38.321.192.588.482.802.869.213.387.32.906.32 1.555V374h-1.258v-1.108h-.064a2.2 2.2 0 01-.426.57 2.458 2.458 0 01-.794.517c-.33.142-.733.213-1.209.213zm.192-1.13c.497 0 .917-.097 1.26-.292.342-.196.602-.448.777-.757.176-.309.264-.634.264-.975v-1.15c-.053.064-.17.121-.349.173a5.35 5.35 0 01-.618.133l-.343.052-.863.11a4.837 4.837 0 00-.914.206c-.282.094-.51.234-.682.42-.172.187-.258.44-.258.76 0 .436.163.766.487.988.325.222.738.332 1.239.332zm7.713.938l-2.493-8.182h1.321l1.769 6.264h.085l1.747-6.264h1.342l1.726 6.243h.085l1.769-6.243h1.32L296.01 374h-1.236l-1.79-6.286h-.127l-1.79 6.286h-1.236zm12.741.192a3.302 3.302 0 01-1.411-.296 2.407 2.407 0 01-1.007-.857c-.248-.375-.373-.829-.373-1.361 0-.47.093-.85.277-1.143.185-.293.432-.523.74-.69.31-.167.651-.292 1.026-.375.375-.084.752-.15 1.132-.2l1.049-.128.163-.019c.31-.033.538-.091.682-.173.143-.081.215-.223.215-.426v-.042c0-.526-.143-.934-.428-1.226-.286-.29-.719-.436-1.298-.436-.6 0-1.07.131-1.411.394-.341.263-.58.543-.72.841l-1.192-.426c.213-.497.498-.885.855-1.164a3.229 3.229 0 011.171-.586c.409-.11.831-.166 1.255-.167.263 0 .565.03.908.093.343.062.675.189.996.38.322.192.589.482.802.869.213.387.32.906.32 1.555V374h-1.258v-1.108h-.064a2.2 2.2 0 01-.426.57 2.454 2.454 0 01-.793.517c-.33.142-.734.213-1.21.213zm.192-1.13c.497 0 .917-.097 1.26-.292.343-.196.602-.448.778-.757a1.95 1.95 0 00.263-.975v-1.15c-.053.064-.17.121-.349.173a5.33 5.33 0 01-.617.133l-.344.052-.863.11c-.31.039-.616.108-.913.206-.283.094-.51.234-.682.42-.173.187-.259.44-.259.76 0 .436.163.766.488.988.325.222.737.332 1.238.332zm5.86.938v-8.182h1.214v1.236h.085c.15-.405.42-.733.81-.985.39-.253.83-.379 1.321-.379l.346.006c.139.003.243.009.314.016v1.278l-.206-.037a3.092 3.092 0 00-.56-.048 2.232 2.232 0 00-1.063.248 1.843 1.843 0 00-1.004 1.67V374h-1.257zm8.671.17c-.681 0-1.283-.173-1.805-.519-.522-.346-.93-.836-1.225-1.47-.295-.634-.443-1.384-.443-2.25 0-.86.148-1.606.443-2.238.294-.632.704-1.12 1.23-1.465.526-.344 1.133-.516 1.822-.516.532 0 .954.088 1.265.263.31.176.549.375.714.597l.18.247c.082.114.15.214.206.299h.106v-4.027h1.257V374h-1.214v-1.257h-.15l-.129.197c-.074.108-.162.23-.264.365-.17.225-.414.426-.73.602s-.737.263-1.263.263zm.17-1.129c.505 0 .931-.132 1.28-.397.347-.264.612-.632.793-1.102.181-.47.272-1.015.272-1.633 0-.61-.09-1.146-.267-1.606-.177-.46-.44-.818-.788-1.076-.348-.257-.778-.386-1.29-.386-.532 0-.975.136-1.328.407-.353.272-.618.64-.794 1.103a4.355 4.355 0 00-.263 1.558c0 .582.09 1.11.269 1.585.179.474.445.85.799 1.129.353.279.792.418 1.318.418h-.001zm14.958-4.304v1.172h-4.772v-1.172h4.772zm6.414 5.263v-.959l3.6-3.942c.423-.461.771-.863 1.045-1.206.273-.343.476-.666.61-.97.133-.303.2-.622.2-.956 0-.383-.092-.715-.275-.996a1.813 1.813 0 00-.749-.65 2.418 2.418 0 00-1.065-.229c-.419 0-.784.086-1.095.259-.31.172-.55.412-.719.721-.168.31-.253.672-.253 1.087h-1.257c0-.64.148-1.2.442-1.683a3.07 3.07 0 011.207-1.13 3.613 3.613 0 011.718-.404c.639 0 1.205.135 1.699.405s.88.633 1.161 1.092c.28.458.421.967.421 1.528 0 .402-.072.793-.216 1.175-.144.382-.392.806-.745 1.273a22.922 22.922 0 01-1.468 1.707l-2.45 2.62v.086h5.07V374h-6.881zm12.635.15c-.803 0-1.487-.22-2.051-.659-.565-.438-.996-1.076-1.295-1.912-.298-.836-.447-1.847-.447-3.034 0-1.179.15-2.186.45-3.022.3-.837.733-1.476 1.3-1.918.566-.442 1.247-.663 2.043-.663.795 0 1.476.22 2.042.663.567.442 1 1.081 1.3 1.918.3.836.45 1.843.45 3.022 0 1.187-.149 2.198-.447 3.034-.299.836-.73 1.474-1.295 1.912-.564.439-1.248.658-2.05.658v.001zm0-1.173c.795 0 1.413-.383 1.853-1.15.44-.767.66-1.861.66-3.282 0-.944-.1-1.748-.3-2.413-.2-.664-.488-1.17-.863-1.518a1.915 1.915 0 00-1.35-.522c-.789 0-1.405.388-1.849 1.164-.444.776-.666 1.873-.666 3.29 0 .944.1 1.747.299 2.407.199.66.485 1.163.86 1.508.375.344.826.516 1.356.516zm9.652-9.886V374h-1.321v-9.524h-.064l-2.664 1.768v-1.342l2.728-1.811h1.321zm6.626 11.058c-.732 0-1.377-.13-1.936-.391-.56-.261-.995-.622-1.308-1.082a2.704 2.704 0 01-.463-1.574 2.915 2.915 0 01.271-1.28c.185-.393.438-.722.76-.986a2.3 2.3 0 011.078-.504v-.064a2.102 2.102 0 01-1.246-.881 2.651 2.651 0 01-.459-1.548 2.634 2.634 0 01.421-1.486c.292-.443.698-.8 1.175-1.033.499-.252 1.068-.378 1.707-.378.632 0 1.197.126 1.694.378.497.252.889.597 1.174 1.033.286.437.431.933.435 1.486a2.698 2.698 0 01-.472 1.548c-.31.453-.722.747-1.233.881v.064c.394.071.75.24 1.065.504a2.967 2.967 0 011.044 2.267 2.755 2.755 0 01-.476 1.573c-.315.46-.75.82-1.305 1.082-.556.26-1.198.391-1.926.391zm0-1.172c.494 0 .92-.08 1.278-.24.36-.16.636-.385.831-.676.196-.291.295-.632.299-1.023a1.958 1.958 0 00-.32-1.092 2.167 2.167 0 00-.855-.745 2.712 2.712 0 00-1.233-.272c-.465 0-.88.09-1.244.272-.364.18-.65.43-.857.745-.208.316-.31.68-.307 1.092-.003.391.092.732.285 1.023.194.291.472.517.834.677.362.16.792.24 1.289.24v-.001zm0-5.177c.39 0 .738-.078 1.041-.235a1.78 1.78 0 00.717-.655c.174-.28.263-.609.266-.985a1.83 1.83 0 00-.26-.967 1.72 1.72 0 00-.71-.64 2.328 2.328 0 00-1.054-.226 2.396 2.396 0 00-1.07.227c-.306.15-.542.364-.71.639a1.792 1.792 0 00-.244.967 1.8 1.8 0 00.253.985c.172.28.41.5.716.655.306.157.657.235 1.055.235zm7.65 4.709l-.086.575c-.06.405-.152.838-.274 1.3-.123.461-.25.896-.381 1.305l-.212.645c-.041.123-.08.233-.113.33h-.959l.181-.9c.075-.374.15-.79.226-1.25.077-.46.14-.93.19-1.409l.064-.596H375.4zm6.519 1.491v-.959l3.6-3.942c.423-.461.771-.863 1.045-1.206.273-.343.477-.666.61-.97.133-.303.2-.622.2-.956 0-.383-.092-.715-.275-.996a1.81 1.81 0 00-.748-.65 2.418 2.418 0 00-1.065-.229c-.42 0-.784.086-1.095.259-.31.172-.55.412-.72.721-.168.31-.252.672-.252 1.087h-1.257c0-.64.147-1.2.442-1.683.295-.483.697-.86 1.206-1.13a3.613 3.613 0 011.718-.404c.64 0 1.206.135 1.7.405.493.27.88.633 1.16 1.092.281.458.421.967.421 1.528 0 .402-.072.793-.215 1.175-.144.382-.393.806-.746 1.273a22.922 22.922 0 01-1.468 1.707l-2.45 2.62v.086h5.071V374h-6.882zm12.635.15c-.803 0-1.486-.22-2.05-.659-.565-.438-.997-1.076-1.295-1.912-.298-.836-.448-1.847-.448-3.034 0-1.179.15-2.186.45-3.022.3-.837.734-1.476 1.3-1.918.567-.442 1.248-.663 2.043-.663.795 0 1.476.22 2.043.663.566.442 1 1.081 1.3 1.918.3.836.45 1.843.45 3.022 0 1.187-.15 2.198-.448 3.034-.298.836-.73 1.474-1.294 1.912-.565.439-1.248.658-2.051.658v.001zm0-1.173c.795 0 1.413-.383 1.854-1.15.44-.767.66-1.861.66-3.282 0-.944-.1-1.748-.3-2.413-.201-.664-.49-1.17-.864-1.518a1.915 1.915 0 00-1.35-.522c-.788 0-1.404.388-1.848 1.164-.444.776-.666 1.873-.666 3.29 0 .944.1 1.747.298 2.407.199.66.486 1.163.86 1.508.375.344.827.516 1.356.516zm9.652-9.886V374h-1.321v-9.524h-.064l-2.663 1.768v-1.342l2.727-1.811h1.321zm6.605-.17c.448.003.895.088 1.342.255.467.18.886.464 1.226.831.369.387.665.914.89 1.58.223.665.335 1.502.335 2.511 0 .97-.092 1.83-.275 2.58-.183.752-.445 1.385-.788 1.9a3.533 3.533 0 01-1.246 1.172c-.489.266-1.04.4-1.654.4-.611 0-1.155-.122-1.633-.366a3.159 3.159 0 01-1.172-1.017 3.512 3.512 0 01-.583-1.516h1.3c.117.501.35.914.7 1.239.35.325.812.487 1.388.487.841 0 1.506-.367 1.994-1.102.489-.735.733-1.774.733-3.116h-.085a3.338 3.338 0 01-.709.772 3.119 3.119 0 01-1.976.676 3.287 3.287 0 01-1.718-.466 3.462 3.462 0 01-1.246-1.283c-.311-.546-.466-1.17-.466-1.873 0-.674.15-1.29.45-1.848.3-.558.722-1.002 1.267-1.332.546-.33 1.187-.492 1.926-.485v.001zm0 1.171c-.447 0-.85.112-1.206.336-.357.224-.64.524-.847.9-.21.385-.318.818-.312 1.257 0 .455.1.868.301 1.239.2.37.476.666.826.884.35.218.748.328 1.195.328.338 0 .652-.067.943-.2.291-.133.546-.316.765-.549a2.504 2.504 0 00.394-2.938 2.477 2.477 0 00-.842-.91 2.195 2.195 0 00-1.217-.347z" fill="#477ECB"/></svg>